<svg xmlns="http://www.w3.org/2000/svg" width="244.332" height="53.23" viewBox="0 0 244.332 53.23">
  <g id="Group_105" data-name="Group 105" transform="translate(-153.496 -990.619)">
    <g id="Group_1" data-name="Group 1" transform="translate(206.401 1002.15)">
      <path id="Path_1" data-name="Path 1" d="M330.417,1042.548a15.261,15.261,0,0,1-1.423,4.188,11.381,11.381,0,0,1-2.46,3.212,10.647,10.647,0,0,1-3.436,2.074,12.2,12.2,0,0,1-4.31.732,13.5,13.5,0,0,1-4.94-.895,10.586,10.586,0,0,1-3.965-2.684,12.786,12.786,0,0,1-2.623-4.412,17.838,17.838,0,0,1-.956-6.119,20.232,20.232,0,0,1,.874-6.16,13.1,13.1,0,0,1,2.5-4.635,10.866,10.866,0,0,1,3.965-2.907,12.974,12.974,0,0,1,5.225-1.016,13.217,13.217,0,0,1,4.575.752,10.9,10.9,0,0,1,3.538,2.073,10.022,10.022,0,0,1,2.358,3.11,11.184,11.184,0,0,1,1.077,3.822h-5.652a6.336,6.336,0,0,0-2.2-3.6,6.3,6.3,0,0,0-8.864,1.26,15.59,15.59,0,0,0-.02,13.987,5.52,5.52,0,0,0,4.94,2.5,5.846,5.846,0,0,0,4.046-1.362,7.174,7.174,0,0,0,2.094-3.924Z" transform="translate(-306.305 -1023.925)" fill="#fff"/>
      <path id="Path_2" data-name="Path 2" d="M388.583,1066.245a11.54,11.54,0,0,1-4.351-.773,8.917,8.917,0,0,1-5.245-5.489,12.688,12.688,0,0,1-.691-4.269,12.506,12.506,0,0,1,.711-4.31,9.278,9.278,0,0,1,2.053-3.334,9.176,9.176,0,0,1,3.233-2.135,11.528,11.528,0,0,1,4.29-.752,11.256,11.256,0,0,1,4.229.752,8.932,8.932,0,0,1,5.225,5.428,12.645,12.645,0,0,1,.711,4.351,12.469,12.469,0,0,1-.711,4.33,9.466,9.466,0,0,1-2.033,3.314,8.947,8.947,0,0,1-3.212,2.135A11.3,11.3,0,0,1,388.583,1066.245Zm0-4.432q4.838,0,4.839-6.1,0-6.058-4.839-6.058t-4.839,6.058Q383.745,1061.813,388.583,1061.812Z" transform="translate(-353.371 -1037.823)" fill="#fff"/>
      <path id="Path_3" data-name="Path 3" d="M455.7,1065.716V1053.6a4.653,4.653,0,0,0-.772-3.131,3.547,3.547,0,0,0-2.643-.813q-4.107,0-4.107,4.594v11.466h-5.286v-20h5.042v2.927a6.422,6.422,0,0,1,2.481-2.582,8.03,8.03,0,0,1,3.985-.874,7.948,7.948,0,0,1,2.643.427,5.6,5.6,0,0,1,2.094,1.281,6.143,6.143,0,0,1,1.382,2.094,7.524,7.524,0,0,1,.508,2.867v13.865Z" transform="translate(-395.601 -1037.823)" fill="#fff"/>
      <path id="Path_4" data-name="Path 4" d="M513.305,1043.327h4.92v5.693a9.783,9.783,0,0,1-.468,3.029,7.094,7.094,0,0,1-1.464,2.562,6.977,6.977,0,0,1-2.521,1.769,9.247,9.247,0,0,1-3.639.651,9.635,9.635,0,0,1-3.741-.651,7.061,7.061,0,0,1-2.541-1.749,6.638,6.638,0,0,1-1.444-2.562,10.5,10.5,0,0,1-.447-3.09v-17.891h5.2v5.408h11.06v3.741h-11.06v8.213a5.171,5.171,0,0,0,.712,2.948,2.629,2.629,0,0,0,2.338,1.037,2.717,2.717,0,0,0,2.338-1.016,4.786,4.786,0,0,0,.752-2.887Z" transform="translate(-434.221 -1028.608)" fill="#fff"/>
      <path id="Path_5" data-name="Path 5" d="M555.513,1030.488v-4.92H560.8v4.92Zm0,22.4v-20H560.8v20Z" transform="translate(-469.233 -1024.999)" fill="#fff"/>
      <path id="Path_6" data-name="Path 6" d="M590.516,1065.716V1053.6a4.653,4.653,0,0,0-.772-3.131,3.545,3.545,0,0,0-2.643-.813q-4.107,0-4.106,4.594v11.466h-5.286v-20h5.042v2.927a6.422,6.422,0,0,1,2.48-2.582,8.03,8.03,0,0,1,3.985-.874,7.948,7.948,0,0,1,2.643.427,5.6,5.6,0,0,1,2.094,1.281,6.143,6.143,0,0,1,1.382,2.094,7.523,7.523,0,0,1,.509,2.867v13.865Z" transform="translate(-483.743 -1037.823)" fill="#fff"/>
      <path id="Path_7" data-name="Path 7" d="M640.775,1057.1a5.709,5.709,0,0,0,1.322,3.619,4.024,4.024,0,0,0,3.151,1.342,4.419,4.419,0,0,0,2.3-.59,2.667,2.667,0,0,0,1.281-1.646h5.448a8.774,8.774,0,0,1-3.253,4.757,9.215,9.215,0,0,1-5.53,1.667q-10,0-10-10.9a12.7,12.7,0,0,1,.65-4.189,9.041,9.041,0,0,1,1.891-3.212,8.174,8.174,0,0,1,3.029-2.054,11.061,11.061,0,0,1,4.107-.711q4.635,0,7.014,2.968t2.379,8.945Zm8.336-3.334a5.571,5.571,0,0,0-.386-1.931,4.036,4.036,0,0,0-.915-1.383,3.644,3.644,0,0,0-1.3-.813,4.4,4.4,0,0,0-1.5-.264,3.753,3.753,0,0,0-2.744,1.159,4.943,4.943,0,0,0-1.322,3.233Z" transform="translate(-521.52 -1037.823)" fill="#fff"/>
      <path id="Path_8" data-name="Path 8" d="M708.662,1065.716V1053.6a4.651,4.651,0,0,0-.773-3.131,3.546,3.546,0,0,0-2.643-.813q-4.107,0-4.106,4.594v11.466h-5.286v-20H700.9v2.927a6.421,6.421,0,0,1,2.48-2.582,8.031,8.031,0,0,1,3.985-.874,7.948,7.948,0,0,1,2.643.427,5.6,5.6,0,0,1,2.094,1.281,6.147,6.147,0,0,1,1.383,2.094,7.531,7.531,0,0,1,.508,2.867v13.865Z" transform="translate(-560.985 -1037.823)" fill="#fff"/>
      <path id="Path_9" data-name="Path 9" d="M766.27,1043.327h4.92v5.693a9.783,9.783,0,0,1-.467,3.029,7.1,7.1,0,0,1-1.464,2.562,6.977,6.977,0,0,1-2.521,1.769,9.246,9.246,0,0,1-3.639.651,9.634,9.634,0,0,1-3.741-.651,7.061,7.061,0,0,1-2.541-1.749,6.639,6.639,0,0,1-1.444-2.562,10.493,10.493,0,0,1-.447-3.09v-17.891h5.2v5.408h11.06v3.741H760.13v8.213a5.173,5.173,0,0,0,.712,2.948,2.629,2.629,0,0,0,2.338,1.037,2.719,2.719,0,0,0,2.338-1.016,4.788,4.788,0,0,0,.752-2.887Z" transform="translate(-599.605 -1028.608)" fill="#fff"/>
      <path id="Path_10" data-name="Path 10" d="M818.856,1051.769a2.824,2.824,0,0,0-1.058-2.053,4.807,4.807,0,0,0-2.683-.589,5.551,5.551,0,0,0-2.318.386,1.32,1.32,0,0,0-.813,1.281,1.485,1.485,0,0,0,.813,1.362,10.9,10.9,0,0,0,2.44.915q1.707.488,3.253.874a24.7,24.7,0,0,1,2.724.834,5.7,5.7,0,0,1,2.44,1.769,4.946,4.946,0,0,1,.854,3.07,5.863,5.863,0,0,1-2.216,4.879q-2.217,1.748-6.526,1.749-4.636,0-7.1-1.952a6.337,6.337,0,0,1-2.541-5h5.448a2.524,2.524,0,0,0,1.1,2.2,5.229,5.229,0,0,0,3.05.773,6.082,6.082,0,0,0,2.48-.468,1.632,1.632,0,0,0,1.057-1.606,1.543,1.543,0,0,0-.956-1.5,12.568,12.568,0,0,0-2.257-.773q-2.522-.61-4.066-1.1a10.541,10.541,0,0,1-2.6-1.179,5.1,5.1,0,0,1-1.972-2.033,5.636,5.636,0,0,1-.549-2.48,6.187,6.187,0,0,1,.447-2.358,4.561,4.561,0,0,1,1.464-1.891,7.489,7.489,0,0,1,2.623-1.24,14.644,14.644,0,0,1,3.883-.447q4.351,0,6.4,1.667a6.527,6.527,0,0,1,2.257,4.92Z" transform="translate(-633.081 -1037.823)" fill="#fff"/>
    </g>
    <g id="Group_2" data-name="Group 2" transform="translate(153.496 990.619)">
      <path id="Path_11" data-name="Path 11" d="M175.094,1000.655a17.7,17.7,0,0,0,8.255-3.043,19.97,19.97,0,0,1,9.227-3.389,23.426,23.426,0,0,1,4.065-.2,22.729,22.729,0,0,0-30.234,5.787A17.633,17.633,0,0,0,175.094,1000.655Z" transform="translate(-161.937 -990.619)" fill="#50baa3"/>
      <path id="Path_12" data-name="Path 12" d="M173.621,1019.292a14.763,14.763,0,0,0,7.876-1.082,18.641,18.641,0,0,1,17.487,1.949,15.4,15.4,0,0,0,4.666,2.271,22.657,22.657,0,0,0-6.67-14.269,17.1,17.1,0,0,0-7.764-.558,17.687,17.687,0,0,0-8.255,3.042,19.973,19.973,0,0,1-9.227,3.389,24.971,24.971,0,0,1-3.181.217,20.152,20.152,0,0,1-6.6-1.168l-.6-.184q-.291.5-.557,1.014a17.515,17.515,0,0,1,5.38,2.589A14.756,14.756,0,0,0,173.621,1019.292Z" transform="translate(-158.269 -1001.594)" fill="#8d9618"/>
      <path id="Path_13" data-name="Path 13" d="M166.653,1048.246a17.693,17.693,0,0,0,8.255-3.042,22.088,22.088,0,0,1,19.011-2.439,19.181,19.181,0,0,0,4.848,1.024,22.914,22.914,0,0,0,.18-2.317,17.108,17.108,0,0,1-6.058-2.759,16.222,16.222,0,0,0-15.32-1.707,18.641,18.641,0,0,1-17.486-1.949,15.061,15.061,0,0,0-5.066-2.376,22.774,22.774,0,0,0-.824,13.764,25.783,25.783,0,0,1,3.707.941A17.693,17.693,0,0,0,166.653,1048.246Z" transform="translate(-153.496 -1018.118)" fill="#593c1b"/>
      <path id="Path_14" data-name="Path 14" d="M184.2,1095.861a18.638,18.638,0,0,1-17.486-1.949,22.88,22.88,0,0,0-2.29-1.364,22.726,22.726,0,0,0,34.1,4.384,14.16,14.16,0,0,0-6.45-2.153A14.753,14.753,0,0,0,184.2,1095.861Z" transform="translate(-160.642 -1057.259)" fill="#f8b600"/>
      <path id="Path_15" data-name="Path 15" d="M196.116,1066.5a19.671,19.671,0,0,0-17.01,2.182,19.968,19.968,0,0,1-9.227,3.389,24.985,24.985,0,0,1-3.181.217,20.16,20.16,0,0,1-6.6-1.168c-.7-.219-1.4-.434-2.138-.613q.208.535.442,1.057a17.47,17.47,0,0,1,5.41,2.6,16.226,16.226,0,0,0,15.32,1.707,17.007,17.007,0,0,1,8.988-1.219,16.561,16.561,0,0,1,7.941,2.806,22.676,22.676,0,0,0,5.183-9.847A21.791,21.791,0,0,1,196.116,1066.5Z" transform="translate(-156.413 -1039.536)" fill="#d25941"/>
    </g>
    <g id="Group_3" data-name="Group 3" transform="translate(320.234 1036.029)">
      <path id="Path_16" data-name="Path 16" d="M635.094,1122.326h2.47a4.409,4.409,0,0,1,1.392.231,3.839,3.839,0,0,1,1.262.7,3.546,3.546,0,0,1,.909,1.167,3.987,3.987,0,0,1,0,3.253,3.567,3.567,0,0,1-.909,1.161,3.849,3.849,0,0,1-1.262.7,4.406,4.406,0,0,1-1.392.231h-2.47Zm.757,6.748h1.471a3.865,3.865,0,0,0,1.477-.257,3.053,3.053,0,0,0,1.04-.683,2.721,2.721,0,0,0,.615-.967,3.237,3.237,0,0,0,0-2.239,2.725,2.725,0,0,0-.615-.967,3.055,3.055,0,0,0-1.04-.683,3.862,3.862,0,0,0-1.477-.257h-1.471Z" transform="translate(-635.094 -1122.137)" fill="#fff"/>
      <path id="Path_17" data-name="Path 17" d="M659.864,1129.074h3.984v.694h-4.74v-7.442h4.614v.694h-3.858v2.533h3.605v.694h-3.605Z" transform="translate(-650.793 -1122.137)" fill="#fff"/>
      <path id="Path_18" data-name="Path 18" d="M680.932,1123.2a1.633,1.633,0,0,0-1.44-.725,2.149,2.149,0,0,0-.578.079,1.6,1.6,0,0,0-.51.242,1.205,1.205,0,0,0-.362.421,1.268,1.268,0,0,0-.137.6,1.047,1.047,0,0,0,.284.783,2.241,2.241,0,0,0,.7.457,7.87,7.87,0,0,0,.92.32,4.225,4.225,0,0,1,.92.378,2.194,2.194,0,0,1,.7.625,1.77,1.77,0,0,1,.284,1.062,1.909,1.909,0,0,1-.215.909,2.089,2.089,0,0,1-.568.678,2.655,2.655,0,0,1-.788.42,2.73,2.73,0,0,1-.878.147,3.319,3.319,0,0,1-1.3-.258,2.468,2.468,0,0,1-1.046-.846l.694-.494a1.8,1.8,0,0,0,.671.656,2,2,0,0,0,1.016.247,1.871,1.871,0,0,0,.566-.089,1.619,1.619,0,0,0,.508-.263,1.453,1.453,0,0,0,.372-.426,1.129,1.129,0,0,0,.146-.578,1.186,1.186,0,0,0-.163-.646,1.407,1.407,0,0,0-.431-.431,2.742,2.742,0,0,0-.61-.289q-.342-.116-.7-.231t-.7-.263a2.42,2.42,0,0,1-.61-.373,1.666,1.666,0,0,1-.431-.568,1.983,1.983,0,0,1-.163-.857,2.026,2.026,0,0,1,.205-.935,1.941,1.941,0,0,1,.546-.662,2.321,2.321,0,0,1,.773-.389,3.113,3.113,0,0,1,.883-.126,3.162,3.162,0,0,1,1.146.2,2.477,2.477,0,0,1,.957.7Z" transform="translate(-662.444 -1121.78)" fill="#fff"/>
      <path id="Path_19" data-name="Path 19" d="M694.386,1129.768H693.5l3.237-7.442h.736l3.238,7.442h-.883l-.82-1.955h-3.805Zm1.1-2.648h3.226l-1.608-3.91Z" transform="translate(-673.281 -1122.137)" fill="#fff"/>
      <path id="Path_20" data-name="Path 20" d="M719.215,1129.768h-.757v-7.442h2.291a2.918,2.918,0,0,1,1.792.494,1.749,1.749,0,0,1,.657,1.493,1.86,1.86,0,0,1-.489,1.309,2.1,2.1,0,0,1-1.414.615l2.144,3.531h-.925l-2.039-3.458h-1.261Zm0-4.152h1.345a3.015,3.015,0,0,0,.856-.1,1.591,1.591,0,0,0,.563-.278,1.011,1.011,0,0,0,.3-.41,1.35,1.35,0,0,0,.095-.51,1.326,1.326,0,0,0-.095-.5,1.055,1.055,0,0,0-.3-.415,1.485,1.485,0,0,0-.563-.279,3.176,3.176,0,0,0-.856-.1h-1.345Z" transform="translate(-689.596 -1122.137)" fill="#fff"/>
      <path id="Path_21" data-name="Path 21" d="M738.431,1129.768h-.757v-7.442h2.291a2.918,2.918,0,0,1,1.792.494,1.748,1.748,0,0,1,.657,1.493,1.859,1.859,0,0,1-.489,1.309,2.1,2.1,0,0,1-1.414.615l2.144,3.531h-.925l-2.039-3.458h-1.261Zm0-4.152h1.345a3.016,3.016,0,0,0,.856-.1,1.591,1.591,0,0,0,.563-.278,1.014,1.014,0,0,0,.3-.41,1.349,1.349,0,0,0,.095-.51,1.325,1.325,0,0,0-.095-.5,1.058,1.058,0,0,0-.3-.415,1.485,1.485,0,0,0-.563-.279,3.177,3.177,0,0,0-.856-.1h-1.345Z" transform="translate(-702.159 -1122.137)" fill="#fff"/>
      <path id="Path_22" data-name="Path 22" d="M763.191,1125.69a4.079,4.079,0,0,1-.294,1.566,3.694,3.694,0,0,1-2.044,2.049,4.175,4.175,0,0,1-3.08,0,3.693,3.693,0,0,1-2.044-2.049,4.311,4.311,0,0,1,0-3.132,3.689,3.689,0,0,1,2.044-2.05,4.175,4.175,0,0,1,3.08,0,3.691,3.691,0,0,1,2.044,2.05A4.079,4.079,0,0,1,763.191,1125.69Zm-.82,0a3.591,3.591,0,0,0-.21-1.225,3.115,3.115,0,0,0-.6-1.025,2.926,2.926,0,0,0-.962-.7,3.261,3.261,0,0,0-2.565,0,2.922,2.922,0,0,0-.962.7,3.1,3.1,0,0,0-.6,1.025,3.667,3.667,0,0,0,0,2.449,3.093,3.093,0,0,0,.6,1.025,2.908,2.908,0,0,0,.962.7,3.261,3.261,0,0,0,2.565,0,2.912,2.912,0,0,0,.962-.7,3.112,3.112,0,0,0,.6-1.025A3.589,3.589,0,0,0,762.371,1125.69Z" transform="translate(-713.77 -1121.78)" fill="#fff"/>
      <path id="Path_23" data-name="Path 23" d="M784.181,1129.074h3.468v.694h-4.226v-7.442h.757Z" transform="translate(-732.07 -1122.137)" fill="#fff"/>
      <path id="Path_24" data-name="Path 24" d="M800.576,1129.074h3.469v.694h-4.226v-7.442h.757Z" transform="translate(-742.788 -1122.137)" fill="#fff"/>
      <path id="Path_25" data-name="Path 25" d="M822.512,1125.69a4.08,4.08,0,0,1-.295,1.566,3.692,3.692,0,0,1-2.044,2.049,4.176,4.176,0,0,1-3.08,0,3.693,3.693,0,0,1-2.044-2.049,4.31,4.31,0,0,1,0-3.132,3.689,3.689,0,0,1,2.044-2.05,4.176,4.176,0,0,1,3.08,0,3.689,3.689,0,0,1,2.044,2.05A4.08,4.08,0,0,1,822.512,1125.69Zm-.82,0a3.593,3.593,0,0,0-.21-1.225,3.1,3.1,0,0,0-.6-1.025,2.929,2.929,0,0,0-.962-.7,3.261,3.261,0,0,0-2.565,0,2.924,2.924,0,0,0-.962.7,3.1,3.1,0,0,0-.6,1.025,3.673,3.673,0,0,0,0,2.449,3.094,3.094,0,0,0,.6,1.025,2.91,2.91,0,0,0,.962.7,3.261,3.261,0,0,0,2.565,0,2.916,2.916,0,0,0,.962-.7,3.1,3.1,0,0,0,.6-1.025A3.591,3.591,0,0,0,821.692,1125.69Z" transform="translate(-752.553 -1121.78)" fill="#fff"/>
      <path id="Path_26" data-name="Path 26" d="M845.354,1123.2a1.634,1.634,0,0,0-1.44-.725,2.152,2.152,0,0,0-.578.079,1.6,1.6,0,0,0-.51.242,1.207,1.207,0,0,0-.362.421,1.268,1.268,0,0,0-.137.6,1.047,1.047,0,0,0,.284.783,2.242,2.242,0,0,0,.7.457,7.852,7.852,0,0,0,.92.32,4.227,4.227,0,0,1,.92.378,2.194,2.194,0,0,1,.7.625,1.773,1.773,0,0,1,.283,1.062,1.91,1.91,0,0,1-.215.909,2.09,2.09,0,0,1-.568.678,2.66,2.66,0,0,1-.788.42,2.73,2.73,0,0,1-.878.147,3.319,3.319,0,0,1-1.3-.258,2.468,2.468,0,0,1-1.046-.846l.694-.494a1.793,1.793,0,0,0,.671.656,2,2,0,0,0,1.016.247,1.872,1.872,0,0,0,.566-.089,1.621,1.621,0,0,0,.508-.263,1.454,1.454,0,0,0,.372-.426,1.13,1.13,0,0,0,.146-.578,1.19,1.19,0,0,0-.163-.646,1.412,1.412,0,0,0-.431-.431,2.736,2.736,0,0,0-.61-.289q-.342-.116-.7-.231t-.7-.263a2.423,2.423,0,0,1-.61-.373,1.663,1.663,0,0,1-.431-.568,1.978,1.978,0,0,1-.163-.857,2.022,2.022,0,0,1,.2-.935,1.94,1.94,0,0,1,.546-.662,2.315,2.315,0,0,1,.773-.389,3.112,3.112,0,0,1,.883-.126,3.163,3.163,0,0,1,1.146.2,2.477,2.477,0,0,1,.957.7Z" transform="translate(-769.94 -1121.78)" fill="#fff"/>
    </g>
  </g>
</svg>
