<?xml version="1.0" encoding="utf-8"?>
<!-- Generator: Adobe Illustrator 24.2.3, SVG Export Plug-In . SVG Version: 6.00 Build 0)  -->
<svg version="1.1" id="Group_16" xmlns="http://www.w3.org/2000/svg" xmlns:xlink="http://www.w3.org/1999/xlink" x="0px" y="0px"
	 viewBox="0 0 156.5 46.3" style="enable-background:new 0 0 156.5 46.3;" xml:space="preserve">
<style type="text/css">
	.st0{fill:#FFFFFF;}
</style>
<path id="Path_37" class="st0" d="M25.9,20.8L12.4,20l-5.1,6.1l11-0.6l7.9,1.7L25.9,20.8z"/>
<g id="Group_15" transform="translate(0 0)">
	<g id="Group_14">
		<g id="Group_13">
			<g id="Group_12" transform="translate(49.014 1.175)">
				<path id="Path_40" class="st0" d="M30.2,42.9V16.2l-7.3,26.8h-8.1L7.6,16.3v26.6H0V3.9h12l7.1,28.6l7.1-28.6h11.8v39.1H30.2z"/>
				<path id="Path_41" class="st0" d="M59.2,42.9c-0.3-0.8-0.4-1.7-0.5-2.6c-1,1.1-2.2,1.9-3.6,2.4c-1.7,0.6-3.4,0.9-5.2,0.9
					c-3.3,0-5.8-0.7-7.3-2.2c-1.6-1.5-2.4-3.6-2.3-5.7c-0.1-1.7,0.3-3.4,1-5c0.6-1.2,1.6-2.2,2.8-2.9c1.3-0.8,2.7-1.3,4.2-1.6
					c1.6-0.3,3.4-0.6,5.3-0.9c1.4-0.1,2.7-0.5,3.9-1.1c1.2-0.9,1.3-2.6,0.4-3.8c-0.2-0.3-0.5-0.5-0.7-0.6c-1.1-0.6-2.3-0.9-3.6-0.8
					c-1.4-0.1-2.7,0.3-3.8,1.2c-0.8,0.9-1.3,2-1.4,3.1h-7.1c0-1.4,0.3-2.8,0.7-4.1c0.4-1.2,1.2-2.4,2.2-3.2c1.1-1,2.5-1.7,3.9-2.1
					c1.9-0.5,3.9-0.8,5.9-0.7c2,0,3.9,0.2,5.8,0.8c1.4,0.4,2.7,1.2,3.8,2.2c1,1,1.7,2.2,2.1,3.6c0.5,1.6,0.7,3.2,0.6,4.9v18.3
					L59.2,42.9z M58.7,28.8c-0.5,0.4-1.1,0.8-1.7,0.9c-1.1,0.3-2.1,0.6-3.2,0.8c-1.6,0.2-3.2,0.8-4.5,1.6c-0.8,0.7-1.3,1.8-1.2,2.9
					c0,2.2,1.2,3.2,3.7,3.2c0.9,0,1.9-0.2,2.7-0.5c1.6-0.6,2.9-1.8,3.6-3.4c0.4-0.8,0.6-1.6,0.6-2.4L58.7,28.8z"/>
				<path id="Path_42" class="st0" d="M69.7,42.9V3.4h7.6v39.5L69.7,42.9z"/>
				<path id="Path_43" class="st0" d="M87.5,30.5c0,1.9,0.7,3.8,1.9,5.2c1.2,1.3,2.8,2,4.6,1.9c1.2,0,2.3-0.3,3.3-0.9
					c0.9-0.5,1.6-1.4,1.9-2.4h7.9c-0.7,2.8-2.4,5.2-4.7,6.9c-2.3,1.6-5.1,2.5-8,2.4c-9.6,0-14.5-5.3-14.5-15.8
					c0-2.1,0.3-4.1,0.9-6.1c0.6-1.7,1.5-3.3,2.7-4.6c1.2-1.3,2.7-2.3,4.4-3c1.9-0.7,3.9-1.1,5.9-1c4.5,0,7.9,1.4,10.1,4.3
					s3.4,7.2,3.4,12.9L87.5,30.5z M99.6,25.6c0-1-0.2-1.9-0.6-2.8c-0.3-0.8-0.7-1.4-1.3-2c-0.5-0.5-1.2-0.9-1.9-1.2
					c-0.7-0.3-1.4-0.4-2.2-0.4c-1.5,0-2.9,0.6-4,1.7c-1.2,1.3-1.9,2.9-1.9,4.7L99.6,25.6z M89.9,10.3l-1.8-3.2L100.3,0l2.8,4.8
					L89.9,10.3z"/>
			</g>
			<path id="Path_44" class="st0" d="M42.7,42l-1.2-8.5c0-0.3-0.3-0.5-0.6-0.6l-13.7-1c0,0,0,0,0,0c0,0,0,0,0,0v-1.5c0,0,0,0,0,0
				c0,0,0,0,0,0l9.9,0.3c0.2,0,0.4-0.1,0.4-0.3c0-0.1,0-0.1,0-0.2l-10.2-23V6.8c0,0,0,0,0,0l5.3-2.3C32.8,4.4,33,4,32.8,3.7
				c-0.1-0.1-0.2-0.3-0.3-0.3l-5.3-2.3c0,0,0,0,0,0V0.7c0-0.3-0.2-0.6-0.5-0.7C26.3,0,26,0.2,25.9,0.5c0,0,0,0.1,0,0.1v4.6
				c0,0,0,0,0,0l-24.5,25c0,0,0,0,0,0l-0.8-0.1c-0.3,0-0.7,0.2-0.7,0.6c0,0.1,0,0.3,0.1,0.4l6.6,11.3c0.1,0.2,0.3,0.3,0.6,0.3h34.8
				c0.3,0,0.5-0.2,0.6-0.4C42.7,42.2,42.7,42.1,42.7,42z M27.2,10.4l8.8,19.1c0,0,0,0,0,0c0,0,0,0,0,0l-8.8-0.4c0,0,0,0,0,0l0,0
				L27.2,10.4C27.2,10.4,27.2,10.4,27.2,10.4C27.2,10.4,27.2,10.4,27.2,10.4z M25.9,7.1C25.9,7.1,25.9,7.1,25.9,7.1
				C25.9,7.1,25.9,7.1,25.9,7.1l0,13.2c0,0,0,0,0,0c0,0,0,0,0,0c-4-1.1-8.1-1.3-12.2-0.8c0,0,0,0,0,0c0,0,0,0,0,0L25.9,7.1z
				 M12,21.3c5.5-1.7,12.1-0.1,13.9,0.4c0,0,0,0,0,0v4.7c0,0,0,0,0,0c0,0,0,0,0,0c-4.2-1.4-8.8-2-13.2-1.5c-1.7,0.1-3.3,0.4-4.9,0.7
				c0,0,0,0,0,0c0,0,0,0,0,0L12,21.3L12,21.3z M6,27.4c1.4-0.4,11.7-2.9,19.9,0.4c0,0,0,0,0,0v4.1c0,0,0,0,0,0c0,0,0,0,0,0l-0.7,0
				l-14.6-1l-7.5-0.5c0,0,0,0,0,0c0,0,0,0,0,0L6,27.4L6,27.4z"/>
		</g>
	</g>
</g>
</svg>
